<?xml version="1.0" encoding="iso-8859-1"?>
<!-- Generator: Adobe Illustrator 19.0.0, SVG Export Plug-In . SVG Version: 6.00 Build 0)  -->
<svg version="1.1" id="Layer_1" xmlns="http://www.w3.org/2000/svg" xmlns:xlink="http://www.w3.org/1999/xlink" x="0px" y="0px"
	 viewBox="0 0 496.2 496.2" style="enable-background:new 0 0 496.2 496.2;" xml:space="preserve">
<path style="fill:#48A1AF;" d="M496.2,248.1C496.2,111.1,385.1,0,248.1,0S0,111.1,0,248.1s111.1,248.1,248.1,248.1
	S496.2,385.1,496.2,248.1z"/>
<path d="M247.8,333.4c-77.2,0-139.1,22.1-146.4,49.3c-3.3,12.2-7,35.2-10.1,57.5c42.7,34.9,97.4,55.9,156.9,55.9
	s114.1-21,156.9-55.9c-3.2-22.3-6.9-45.4-10.1-57.5C387.5,355.5,324.9,333.4,247.8,333.4z"/>
<polygon style="fill:#C7C8C9;" points="210.2,335.4 247.8,363.5 286,335.4 287.9,322.3 247.9,317 208.3,322.3 "/>
<path style="fill:#D39266;" d="M287,282.1h-77.8c12.1,36.6,1,53.3,1,53.3s17.1,28.4,37.9,28.4s37.9-28.4,37.9-28.4
	S274.9,318.7,287,282.1z"/>
<g>
	<path style="fill:#3A1D12;" d="M248.1,292.1c-38.7,0-54.5-5-70.8-17.3c-14.9-11.3-47.9-37.2-43.2-88.7c2-22,21.4-72.4,55.9-105.9
		l58.1,67.4V292.1z"/>
	<path style="fill:#3A1D12;" d="M248.1,292.1c38.7,0,54.5-5,70.8-17.3c14.9-11.3,47.9-37.2,43.2-88.7c-2-22-21.4-72.4-55.9-105.9
		l-58.1,67.4V292.1z"/>
</g>
<g>
	<path style="fill:#E29C6D;" d="M327.9,175.2c0-92.4-35.7-113.6-79.8-113.6c-44,0-79.8,21.2-79.8,113.6c0,31.3,5.6,55.8,14,74.7
		c18.4,41.6,50.3,56.1,65.8,56.1s47.3-14.5,65.8-56.1C322.3,231,327.9,206.5,327.9,175.2z"/>
	<path style="fill:#E29C6D;" d="M160.7,207.7c4.3,25.2,9.6,26.3,17.3,25l-8.1-54.8C162.2,179.3,156.4,182.6,160.7,207.7z"/>
	<path style="fill:#E29C6D;" d="M326.5,178l-8.1,54.8c7.6,1.3,13,0.1,17.3-25C339.9,182.6,334.1,179.3,326.5,178z"/>
</g>
<path style="fill:#3A1D12;" d="M330.8,179.1c0-92.4-25.3-117.5-82.7-117.5s-82.7,25.1-82.7,117.5l9.5-7.9
	c45.8,0,84.9-26.9,113.2-52.3C288.1,161.8,330.8,179.1,330.8,179.1z"/>
<path style="fill:#CC785E;" d="M274.8,263.8c0,0-14.2,9.6-26.7,9.6s-26.7-9.6-26.7-9.6c0-1.4,11.3-5.3,16.1-6
	c3-0.5,10.6,2.5,10.6,2.5s7.5-2.9,10.4-2.5C263.4,258.5,274.8,263.8,274.8,263.8z"/>
<path style="fill:#C46E57;" d="M274.8,263.8c0,0-14.2,13.5-26.7,13.5s-26.7-13.5-26.7-13.5s6.5,1.5,19.6,0.7c2.2-0.1,5.1,1.6,7,1.6
	c1.7,0,4.2-1.8,6.1-1.7C267.9,265.2,274.8,263.8,274.8,263.8z"/>
<g>
	<path style="fill:#3A1D12;" d="M174.8,183.1c-0.4-2.7-0.5-5.2-0.4-7.1c0.1-2.9,0.5-4.7,0.5-4.7l-9.4,3.5c0,1.4,0,2.9,0,4.3
		c0,0,1-0.3,2.8-0.9c-0.1,0-0.2,0.1-0.3,0.1c1.3,2.2,2.9,5.6,4.5,10.5C172.4,188.8,176.1,191.5,174.8,183.1z"/>
	<path style="fill:#3A1D12;" d="M321.9,176c0.1,2,0,4.4-0.4,7.1c-1.3,8.4,2.3,5.7,2.3,5.7c1.5-5,3.2-8.3,4.4-10.5
		c1.6,0.6,2.5,0.8,2.5,0.8c0-1.5,0-2.9,0-4.3l-9.3-3.5C321.4,171.3,321.8,173.1,321.9,176"/>
</g>
<g>
	<polygon style="fill:#E4E9ED;" points="305.8,337.8 287.9,322.3 248.1,363.9 284.7,374.1 	"/>
	<polygon style="fill:#E4E9ED;" points="304.9,473.7 268.9,483.9 237.8,374.2 248.1,363.9 273.8,364 	"/>
	<polygon style="fill:#E4E9ED;" points="191.3,473.7 227.3,483.9 258.4,374.2 248.1,363.9 222.4,364 	"/>
	<polygon style="fill:#E4E9ED;" points="190.4,337.8 208.3,322.3 248.1,363.9 211.5,374.1 	"/>
</g>
<g>
	<path style="fill:#2A3F49;" d="M197.7,335.8L197.7,335.8L197.7,335.8z"/>
	<path style="fill:#2A3F49;" d="M311.5,337.4L311.5,337.4L311.5,337.4L311.5,337.4z"/>
	<path style="fill:#2A3F49;" d="M298.5,335.9L298.5,335.9L298.5,335.9z"/>
</g>
<g>
</g>
<g>
</g>
<g>
</g>
<g>
</g>
<g>
</g>
<g>
</g>
<g>
</g>
<g>
</g>
<g>
</g>
<g>
</g>
<g>
</g>
<g>
</g>
<g>
</g>
<g>
</g>
<g>
</g>
</svg>
