<?xml version="1.0" encoding="iso-8859-1"?>
<!-- Generator: Adobe Illustrator 16.0.0, SVG Export Plug-In . SVG Version: 6.00 Build 0)  -->
<!DOCTYPE svg PUBLIC "-//W3C//DTD SVG 1.1//EN" "http://www.w3.org/Graphics/SVG/1.1/DTD/svg11.dtd">
<svg version="1.1" id="Capa_1" xmlns="http://www.w3.org/2000/svg" xmlns:xlink="http://www.w3.org/1999/xlink" x="0px" y="0px"
	 width="43.308px" height="43.308px" viewBox="0 0 43.308 43.308" style="enable-background:new 0 0 43.308 43.308;"
	 xml:space="preserve">
<g>
	<g>
		<path d="M10.362,17.552l5.848-5.953c0.354-0.36,0.837-0.563,1.341-0.563h4.052l0.709,0.945l-1.303,7.368l1.764,1.661l1.762-1.661
			l-1.301-7.368l0.709-0.945h4.051c1.039,0,1.881,0.842,1.881,1.88v12.218c0,1.037-0.842,1.881-1.881,1.881
			c-0.221,0-0.43-0.045-0.625-0.114v13.901c0,1.384-1.123,2.506-2.506,2.506c-0.875,0-1.643-0.446-2.09-1.125
			c-0.447,0.679-1.217,1.125-2.089,1.125c-1.384,0-2.506-1.122-2.506-2.506V14.96l-5.134,5.227
			c-0.728,0.742-1.917,0.752-2.659,0.023C9.646,19.483,9.634,18.293,10.362,17.552z"/>
		<path d="M22.773,9.756c-2.363,0-4.277-2.937-4.277-5.632C18.497,1.429,20.411,0,22.773,0c2.361,0,4.275,1.429,4.275,4.124
			C27.049,6.819,25.135,9.756,22.773,9.756z"/>
		<polygon points="29.882,32.765 29.882,31.078 32.043,31.078 32.043,32.765 33.484,32.765 33.484,42.713 28.439,42.713 
			28.439,32.765 		"/>
	</g>
</g>
<g>
</g>
<g>
</g>
<g>
</g>
<g>
</g>
<g>
</g>
<g>
</g>
<g>
</g>
<g>
</g>
<g>
</g>
<g>
</g>
<g>
</g>
<g>
</g>
<g>
</g>
<g>
</g>
<g>
</g>
</svg>
