<?xml version="1.0" encoding="iso-8859-1"?>
<!-- Generator: Adobe Illustrator 17.1.0, SVG Export Plug-In . SVG Version: 6.00 Build 0)  -->
<!DOCTYPE svg PUBLIC "-//W3C//DTD SVG 1.1//EN" "http://www.w3.org/Graphics/SVG/1.1/DTD/svg11.dtd">
<svg version="1.1" id="Capa_1" xmlns="http://www.w3.org/2000/svg" xmlns:xlink="http://www.w3.org/1999/xlink" x="0px" y="0px"
	 viewBox="0 0 467.66 467.66" style="enable-background:new 0 0 467.66 467.66;" xml:space="preserve">
<g>
	<path d="M444.578,452.66h-50.975v-15.368c0-35.193-9.385-62.355-27.894-80.732c-23.199-23.033-52.226-23.474-54.323-23.474
		c-0.036,0-0.064,0.001-0.084,0.001H273.73v-22.734c0-0.396-0.04-0.783-0.1-1.163c17.808-7.358,30.757-18.354,40.041-29.401
		c4.337,6.276,11.578,10.399,19.768,10.399c12.135,0,22.188-9.048,23.787-20.751c1.918,0.364,3.881,0.562,5.874,0.562
		c17.284,0,31.347-14.063,31.347-31.348c0-7.035-2.416-13.692-6.526-19.054c11.182-5.771,18.85-17.433,18.85-30.86
		c0-10.763-4.924-20.398-12.638-26.77c10.068-7.005,16.676-18.653,16.676-31.821c0-21.213-17.132-38.5-38.287-38.747l-1.399-0.165
		c-7.906-19.758-18.034-40.06-36.199-57.054C310.682,11.499,276.903,0,234.523,0c-0.174,0-0.344,0.014-0.515,0.026
		C233.838,0.014,233.668,0,233.494,0c-42.38,0-76.159,11.499-100.399,34.177c-18.165,16.994-28.293,37.296-36.199,57.054
		l-1.399,0.165c-21.155,0.247-38.287,17.534-38.287,38.747c0,13.168,6.607,24.816,16.676,31.821
		c-7.714,6.372-12.638,16.006-12.638,26.77c0,13.427,7.668,25.089,18.85,30.86c-4.11,5.362-6.526,12.02-6.526,19.054
		c0,17.285,14.063,31.348,31.347,31.348c1.993,0,3.956-0.198,5.874-0.562c1.599,11.703,11.652,20.751,23.787,20.751
		c8.088,0,15.248-4.022,19.603-10.168c9.27,10.969,22.165,21.863,39.849,29.17c-0.06,0.38-0.1,0.767-0.1,1.163v22.734h-37.518
		c-1.282,0.019-30.869,0.051-54.461,23.474c-18.509,18.377-27.894,45.54-27.894,80.732v15.368H23.082c-4.143,0-7.5,3.358-7.5,7.5
		c0,4.142,3.357,7.5,7.5,7.5h421.496c4.143,0,7.5-3.358,7.5-7.5C452.078,456.018,448.72,452.66,444.578,452.66z M311.356,348.086
		c0.19-0.003,24.56,0.031,43.784,19.118c15.569,15.457,23.463,39.039,23.463,70.088v15.368H259.711
		c-0.021-0.536-0.097-1.077-0.239-1.617l-13.655-51.794l23.774,40.8c1.172,2.01,3.209,3.363,5.517,3.662
		c0.322,0.042,0.644,0.062,0.964,0.062c1.977,0,3.888-0.781,5.304-2.197l25.334-25.335c1.645-1.645,2.434-3.961,2.134-6.268
		c-0.299-2.307-1.651-4.345-3.661-5.516l-50.943-29.685c9.582-5.73,16.566-15.363,18.752-26.688H311.356z M233.825,350.742
		c9.388,0,18.023-3.268,24.845-8.715c-0.785,13.024-11.626,23.382-24.845,23.382c-13.219,0-24.06-10.358-24.845-23.382
		C215.801,347.475,224.437,350.742,233.825,350.742z M209.158,314.173c7.111,1.805,14.834,3.067,23.243,3.612
		c0.162,0.01,0.323,0.016,0.485,0.016h1.887c0.162,0,0.323-0.005,0.485-0.016c8.405-0.544,16.124-1.806,23.232-3.609
		c-1.633,12.158-12.068,21.566-24.666,21.566C221.226,335.742,210.791,326.332,209.158,314.173z M234.305,414.428l10.08,38.231
		h-20.16L234.305,414.428z M261.495,396.363l27.725,16.155l-11.569,11.569L261.495,396.363z M134.578,275.186
		c-4.971,0-9.015-4.044-9.015-9.016c0-2.327,0.884-4.536,2.488-6.219c0.38-0.398,0.703-0.829,0.979-1.281
		c0.052-0.062,0.106-0.12,0.158-0.183c2.623-3.206,2.15-7.931-1.056-10.554c-3.205-2.622-7.93-2.15-10.554,1.056
		c-3.123,3.817-7.738,6.007-12.662,6.007c-9.014,0-16.347-7.333-16.347-16.348c0-7.178,4.797-13.622,11.666-15.669
		c3.97-1.183,6.229-5.36,5.045-9.33c-1.129-3.791-4.988-6.016-8.792-5.177c-0.176-0.012-0.352-0.027-0.53-0.027
		c-10.869,0-19.712-8.843-19.712-19.712c0-10.869,8.843-19.712,19.712-19.712c4.143,0,7.5-3.358,7.5-7.5
		c0-0.022-0.003-0.042-0.003-0.064s0.003-0.043,0.003-0.064c0-4.142-3.357-7.5-7.5-7.5c-13.096,0-23.75-10.654-23.75-23.75
		c0-13.096,10.654-23.75,23.75-23.75c0.293,0,0.585-0.017,0.876-0.051l6.271-0.738c2.76-0.325,5.113-2.148,6.117-4.739
		c7.52-19.404,16.857-39.586,34.119-55.735C165.013,24.856,194.503,15,233.494,15c0.174,0,0.344-0.014,0.515-0.026
		c0.171,0.012,0.341,0.026,0.515,0.026c38.991,0,68.48,9.856,90.151,30.13c17.262,16.149,26.6,36.331,34.119,55.735
		c1.004,2.591,3.357,4.414,6.117,4.739l6.271,0.738c0.291,0.034,0.583,0.051,0.876,0.051c13.096,0,23.75,10.654,23.75,23.75
		c0,13.096-10.654,23.75-23.75,23.75c-4.143,0-7.5,3.358-7.5,7.5c0,0.022,0.003,0.042,0.003,0.064s-0.003,0.042-0.003,0.064
		c0,4.142,3.357,7.5,7.5,7.5c10.869,0,19.712,8.843,19.712,19.712c0,10.87-8.843,19.712-19.712,19.712
		c-0.18,0-0.354,0.015-0.53,0.027c-3.808-0.839-7.663,1.386-8.792,5.177c-1.184,3.969,1.075,8.146,5.045,9.33
		c6.869,2.047,11.666,8.491,11.666,15.669c0,9.014-7.333,16.348-16.347,16.348c-4.924,0-9.539-2.189-12.662-6.007
		c-2.623-3.207-7.349-3.678-10.554-1.056c-3.206,2.623-3.679,7.348-1.056,10.554c0.052,0.063,0.107,0.121,0.158,0.183
		c0.275,0.452,0.599,0.883,0.979,1.281c1.604,1.684,2.488,3.892,2.488,6.219c0,4.971-4.044,9.016-9.015,9.016
		c-4.972,0-9.016-4.044-9.016-9.016c0-0.403,0.026-0.808,0.079-1.203c0.025-0.189,0.035-0.377,0.046-0.565
		c12.398-20.954,15.299-40.139,15.422-40.994c0.052-0.357,0.078-0.716,0.078-1.076v-80.663c0.156-2.172-0.629-4.394-2.338-6.002
		l-15.769-14.841v-17.442c0-2.25-1.01-4.38-2.751-5.805c-1.958-1.602-20.988-15.655-85.258-15.655s-83.3,14.053-85.258,15.655
		c-1.741,1.424-2.751,3.555-2.751,5.805v17.419L130,135.641c-0.03,0.028-0.055,0.059-0.084,0.087
		c-0.102,0.097-0.197,0.199-0.293,0.302c-0.076,0.081-0.153,0.163-0.225,0.247c-0.083,0.097-0.159,0.198-0.237,0.299
		c-0.073,0.096-0.148,0.191-0.217,0.29c-0.067,0.098-0.129,0.199-0.191,0.3c-0.066,0.106-0.134,0.211-0.194,0.32
		c-0.059,0.105-0.11,0.213-0.163,0.32c-0.054,0.109-0.11,0.218-0.158,0.329c-0.051,0.115-0.093,0.234-0.138,0.353
		c-0.041,0.108-0.083,0.215-0.119,0.324c-0.04,0.124-0.072,0.251-0.106,0.378c-0.028,0.108-0.06,0.216-0.083,0.326
		c-0.027,0.124-0.047,0.249-0.068,0.376c-0.02,0.118-0.04,0.237-0.055,0.356c-0.014,0.117-0.021,0.234-0.029,0.353
		c-0.009,0.133-0.018,0.266-0.02,0.399c-0.001,0.043-0.007,0.084-0.007,0.128v81.204c0,0.36,0.026,0.72,0.078,1.076
		c0.124,0.864,3.091,20.459,15.832,41.677c0.043,0.358,0.071,0.721,0.071,1.085C143.594,271.142,139.549,275.186,134.578,275.186z
		 M254.334,133.513c-2.374,0.695-4.253,2.516-5.021,4.868c-0.157,0.48-2.016,6.317-2.579,14.006
		c-10.504-2.356-19.642-1.546-26.204-0.112c-0.573-7.633-2.414-13.416-2.57-13.894c-0.768-2.352-2.647-4.173-5.021-4.868
		c-12.567-3.679-25.496-5.544-38.428-5.544c-5.578,0-10.711,0.35-15.322,0.886c1.113-1.339,1.737-3.028,1.737-4.789v-16.394
		c6.829-3.282,27.402-10.748,73.009-10.748c45.589,0,66.08,7.414,73.009,10.764v16.378c0,1.793,0.644,3.515,1.796,4.866
		c-4.777-0.581-10.134-0.963-15.977-0.963C279.83,127.969,266.901,129.834,254.334,133.513z M174.51,142.969
		c10.119,0,20.242,1.286,30.154,3.826c1.31,6.281,2.194,16.628-2.267,23.098c-3.02,4.378-8.297,6.709-16.134,7.123
		c-5.921,0.313-10.188,0.453-13.838,0.453c-19.207,0-26.084-1.462-27.837-30.541C150.346,145.282,160.868,142.969,174.51,142.969z
		 M262.606,146.795c9.912-2.54,20.036-3.826,30.155-3.826c13.531,0,24.123,2.329,29.92,3.974
		c-1.754,29.063-8.633,30.525-27.836,30.525c-3.65,0-7.918-0.14-13.838-0.453c-7.837-0.414-13.114-2.744-16.134-7.123
		C260.411,163.42,261.299,153.066,262.606,146.795z M158.42,260.632c-11.735-18.011-15.267-35.842-15.808-38.914V184.74
		c6.65,5.542,16.243,7.728,29.814,7.728c3.924,0,8.436-0.146,14.629-0.473c12.651-0.669,21.983-5.262,27.735-13.65
		c2.19-3.194,3.63-6.685,4.545-10.23c3.625-1.248,10.604-2.974,19.431-1.907v28.504c0,1.654-1.346,3-3,3h-3.869
		c-1.654,0-3-1.346-3-3c0-4.142-3.357-7.5-7.5-7.5c-4.143,0-7.5,3.358-7.5,7.5c0,9.925,8.075,18,18,18h3.869
		c9.665,0,17.554-7.664,17.961-17.231c0.025-0.253,0.039-0.509,0.039-0.769v-14.642c5.814,7.291,14.698,11.304,26.451,11.926
		c6.192,0.327,10.705,0.473,14.629,0.473c0.002,0-0.001,0,0.001,0c13.83,0,23.539-2.26,30.202-8.043v37.291
		c-0.548,3.107-4.084,20.921-15.808,38.916c-16.81,25.798-41.947,39.985-74.714,42.169h-1.395
		C200.366,300.617,175.228,286.43,158.42,260.632z M89.057,437.292c0-88.177,64.527-89.206,67.301-89.206h38.302
		c2.207,11.438,9.313,21.146,19.041,26.854l-50.656,29.519c-2.01,1.171-3.362,3.209-3.661,5.516
		c-0.299,2.307,0.489,4.622,2.135,6.267l25.335,25.334c1.415,1.416,3.326,2.197,5.303,2.197c0.32,0,0.643-0.02,0.964-0.062
		c2.308-0.299,4.345-1.652,5.517-3.662l24.477-42.005l-13.974,52.999c-0.143,0.54-0.218,1.081-0.239,1.616H89.057V437.292z
		 M206.731,396.363l-16.155,27.724l-11.568-11.569L206.731,396.363z"/>
	<circle cx="180.593" cy="159.983" r="8.951"/>
	<circle cx="287.068" cy="159.983" r="8.951"/>
	<path d="M265.131,255.018c0-4.142-3.357-7.5-7.5-7.5h-47.6c-4.143,0-7.5,3.358-7.5,7.5c0,4.142,3.357,7.5,7.5,7.5h47.6
		C261.773,262.518,265.131,259.16,265.131,255.018z"/>
</g>
<g>
</g>
<g>
</g>
<g>
</g>
<g>
</g>
<g>
</g>
<g>
</g>
<g>
</g>
<g>
</g>
<g>
</g>
<g>
</g>
<g>
</g>
<g>
</g>
<g>
</g>
<g>
</g>
<g>
</g>
</svg>
