<?xml version="1.0" encoding="iso-8859-1"?>
<!-- Generator: Adobe Illustrator 19.0.0, SVG Export Plug-In . SVG Version: 6.00 Build 0)  -->
<svg version="1.1" id="Layer_1" xmlns="http://www.w3.org/2000/svg" xmlns:xlink="http://www.w3.org/1999/xlink" x="0px" y="0px"
	 viewBox="0 0 512 512" style="enable-background:new 0 0 512 512;" xml:space="preserve">
<g>
	<g>
		<path d="M203.977,462.408v26.16c0,12.941,10.491,23.432,23.432,23.432s23.432-10.49,23.432-23.432v-26.16H203.977z"/>
	</g>
</g>
<g>
	<g>
		<path d="M260.96,462.408v26.16h-0.001c0,12.941,10.491,23.432,23.432,23.432s23.432-10.49,23.432-23.432v-26.16H260.96z"/>
	</g>
</g>
<g>
	<g>
		<path d="M354.984,160.122c-0.129-25.352-21.217-45.977-46.57-45.977h-5.421l-38.279,28.709l-8.452-28.709h-0.14l-8.452,28.709
			c-13.893-10.42-24.715-18.536-38.279-28.709h-5.805c-25.353,0-46.441,20.625-46.57,45.978v143.455
			c-0.054,10.784,8.284,19.57,19.068,19.624c0.034,0,0.067,0,0.1,0c10.738,0,19.831-8.678,19.884-19.428V160.319
			c0.011-2.079,2.062-3.758,4.141-3.752c2.078,0.006,3.76,1.693,3.76,3.771v286.038h103.429h0.425
			c0-7.246-0.405-279.244-0.424-285.693c0.004-2.186,1.724-3.984,3.908-4.083c2.187-0.1,4.426,1.538,4.624,3.718v143.455
			c0.054,10.752,9.146,19.428,19.884,19.428c0.032,0,0.067,0,0.1,0c10.784-0.054,19.122-8.84,19.068-19.624L354.984,160.122
			L354.984,160.122z"/>
	</g>
</g>
<g>
	<g>
		<path d="M314.803,63.739c0-5.983-3.431-11.154-8.427-13.685c4.995-2.532,8.427-7.702,8.427-13.685
			c0-10.029-9.532-17.508-19.428-14.784C296.121,9.672,286.675,0,275.133,0c-8.516,0-15.797,5.249-18.813,12.682
			C253.305,5.249,246.024,0,237.507,0c-11.518,0-20.983,9.642-20.242,21.584c-9.887-2.723-19.427,4.749-19.427,14.784
			c0,5.983,3.431,11.154,8.427,13.685c-4.995,2.532-8.427,7.702-8.427,13.685s3.431,11.154,8.427,13.685
			c-4.996,2.533-8.427,7.704-8.427,13.686c0,8.477,6.872,15.349,15.349,15.349c8.642,0,15.781-7.189,15.307-16.165
			c7.238,6.788,16.965,10.951,27.67,10.951c10.868,0,20.727-4.292,27.998-11.264c-0.664,9.141,6.578,16.478,15.292,16.478
			c8.477,0,15.349-6.872,15.349-15.349c0-5.983-3.431-11.154-8.427-13.685C311.371,74.892,314.803,69.722,314.803,63.739z"/>
	</g>
</g>
<g>
</g>
<g>
</g>
<g>
</g>
<g>
</g>
<g>
</g>
<g>
</g>
<g>
</g>
<g>
</g>
<g>
</g>
<g>
</g>
<g>
</g>
<g>
</g>
<g>
</g>
<g>
</g>
<g>
</g>
</svg>
